# xmcd
#
# Track frame offsets:
#	150
#	15848
#	31337
#	49134
#	63736
#	85345
#	104707
#	120631
#	134979
#	161618
#	178650
#	208805
#	224700
#	252172
#	269101
#	284026
#	303255
#	330753
#
# Disc length: 4748 seconds
#
# Revision: 2
# Processed by: cddbd v1.5.1PL0 Copyright (c) Steve Scherf et al.
# Submitted via: audiograbber 1.82.02
#
DISCID=1d128a12
DTITLE=KOTO - Plays Synthesizer World Hits
DYEAR=1997
DGENRE=Electronic
TTITLE0=The force
TTITLE1=Oxygene IV
TTITLE2=The captain of the heart
TTITLE3=Crockett's theme
TTITLE4=Trance europe express
TTITLE5=Jemes bonf theme
TTITLE6=Wonderful land
TTITLE7=Eye of the tiger
TTITLE8=Acknowledge
TTITLE9=Pulsar
TTITLE10=Mind machine
TTITLE11=I like chopin
TTITLE12=Time
TTITLE13=Tender force
TTITLE14=Moonlight shadow
TTITLE15=Epic saga
TTITLE16=Visitors
TTITLE17=Plain
EXTD=
EXTT0=
EXTT1=
EXTT2=
EXTT3=
EXTT4=
EXTT5=
EXTT6=
EXTT7=
EXTT8=
EXTT9=
EXTT10=
EXTT11=
EXTT12=
EXTT13=
EXTT14=
EXTT15=
EXTT16=
EXTT17=
PLAYORDER=
